<svg width="88" height="88" viewBox="0 0 88 88" fill="none" xmlns="http://www.w3.org/2000/svg">
<path d="M62.3153 60.72C62.3153 71.0125 53.8737 79.3848 43.5 79.3848V88C58.664 88 71 75.7627 71 60.72H62.3153Z" fill="white"/>
<path d="M71 27.28C71 12.239 58.664 0 43.5 0C28.336 0 16 12.239 16 27.28C16 42.321 28.336 54.56 43.5 54.56C58.664 54.56 71 42.3227 71 27.28ZM43.5 45.9448C33.1245 45.9448 24.6847 37.5725 24.6847 27.28C24.6847 16.9875 33.1245 8.6152 43.5 8.6152C53.8755 8.6152 62.3153 16.9893 62.3153 27.28C62.3153 37.5707 53.8737 45.9448 43.5 45.9448Z" fill="white"/>
</svg>
