<?xml version="1.0" encoding="UTF-8"?>
<svg width="107px" height="170px" viewBox="0 0 107 170" version="1.1" xmlns="http://www.w3.org/2000/svg" xmlns:xlink="http://www.w3.org/1999/xlink">
  <!-- Generator: Sketch 45.2 (43514) - http://www.bohemiancoding.com/sketch -->
  <title>logo George</title>
  <desc>Created with Sketch.</desc>
  <defs></defs>
  <g id="Onboarding-V5" stroke="none" stroke-width="1" fill="none" fill-rule="evenodd">
    <g id="Onboarding-V5.1" transform="translate(-107.000000, -100.000000)" fill="#004E86">
      <path d="M160.159281,253.369913 C180.186729,253.369913 196.483813,237.210217 196.483813,217.345791 L213.25,217.345791 C213.25,246.377245 189.432047,270 160.159281,270 L160.159281,253.369913 Z M160.090719,205.306018 C130.817953,205.306018 107,181.689262 107,152.654209 C107,123.620355 130.817953,100 160.090719,100 C189.366694,100 213.184646,123.620355 213.184646,152.654209 C213.184646,181.689262 189.366694,205.306018 160.090719,205.306018 Z M160.090719,116.626887 C140.058059,116.626887 123.763781,132.789783 123.763781,152.654209 C123.763781,172.519835 140.058059,188.679131 160.090719,188.679131 C180.118167,188.679131 196.418059,172.519835 196.418059,152.654209 C196.418059,132.789783 180.118167,116.626887 160.090719,116.626887 Z" id="logo-George"></path>
    </g>
  </g>
</svg>